<svg xmlns="http://www.w3.org/2000/svg" viewBox="0 0 50 50">
  <path
    d="M35.67 17.88h-4.43a.9.9 0 0 1-.91-.89v-4.45a.91.91 0 0 1 1.55-.64l4.43 4.44a.9.9 0 0 1-.64 1.54Zm-3.53-1.81h1.34l-1.34-1.34Z M35.67 31.24H14.25a.909.909 0 0 1-.91-.91V12.54a.9.9 0 0 1 .9-.9h17.01a.9.9 0 0 1 .64.26l4.43 4.44a.91.91 0 0 1 .27.64v13.35a.909.909 0 0 1-.91.91Zm-20.51-1.81h19.61V17.35l-3.91-3.9h-15.7Z M24.88 34.66a.909.909 0 0 1-.91-.91v-3a.91.91 0 0 1 1.82 0v3a.909.909 0 0 1-.91.91Z M28.61 38.36h-7.22a.9.9 0 0 1-.9-.9v-3.53a.9.9 0 0 1 .89-.91h7.23a.9.9 0 0 1 .9.9v3.54a.9.9 0 0 1-.9.9Zm-6.31-1.81h5.4v-1.71h-5.4Z M35.78 36.6h-7.15a.91.91 0 0 1 0-1.81h7.15a.91.91 0 0 1 .191 1.81.871.871 0 0 1-.191 0Zm-14.41 0h-7.15a.91.91 0 0 1-.191-1.81.871.871 0 0 1 .191 0h7.15a.91.91 0 0 1 0 1.81Zm-1.8-15.23a.9.9 0 0 1-.9-.892v-4.292A.91.91 0 0 1 20.48 16a.844.844 0 0 1 0 .188v4.292a.9.9 0 0 1-.9.892Z M21.55 17h-3.9a.91.91 0 0 1 0-1.81h3.9a.91.91 0 0 1 0 1.81Zm3.37 11.52a.909.909 0 0 1-.91-.91v-4.43a.989.989 0 0 1 .07-.38 1 1 0 0 1 1.06-.57h1.21a2.26 2.26 0 0 1 0 4.52h-.53v.84a.9.9 0 0 1-.87.93Zm.9-4.48V25h.52a.449.449 0 0 0 .45-.45.449.449 0 0 0-.45-.45h-.52Zm-3.55 4.48a.909.909 0 0 1-.91-.91v-4.46a.91.91 0 0 1 1.82 0v4.46a.909.909 0 0 1-.91.91Zm2.62-7.1a2.911 2.911 0 0 1-2.662-3.139v-.021a2.89 2.89 0 0 1 2.619-3.137h.031a2.531 2.531 0 0 1 2.34 1.47.91.91 0 0 1-1.62.82.7.7 0 0 0-.72-.47c-.47 0-.84.58-.84 1.32s.44 1.34.85 1.34.56-.13.67-.4a.91.91 0 1 1 1.741.531.93.93 0 0 1-.071.169 2.369 2.369 0 0 1-2.338 1.517ZM28.55 21.37a.9.9 0 0 1-.91-.89V16.1a.921.921 0 0 1 .08-.39 1 1 0 0 1 1.05-.56H30a2.26 2.26 0 0 1 0 4.52h-.52v.78a.9.9 0 0 1-.879.92Zm.91-4.4v.91H30a.45.45 0 0 0 .189-.88.463.463 0 0 0-.189 0h-.51Z"
    fill="#424242" />
</svg>